<svg width="154" height="159" viewBox="0 0 154 159" fill="none" xmlns="http://www.w3.org/2000/svg">
<rect width="153.629" height="158.679" rx="76.8144" fill="#1E2235"/>
<path d="M76.8145 87.1113C80.9702 87.1113 84.3391 83.6317 84.3391 79.3393C84.3391 75.047 80.9702 71.5674 76.8145 71.5674C72.6588 71.5674 69.2899 75.047 69.2899 79.3393C69.2899 83.6317 72.6588 87.1113 76.8145 87.1113Z" fill="#61DAFB"/>
<path fill-rule="evenodd" clip-rule="evenodd" d="M41.4498 75.2447C39.7458 76.8334 39.1819 78.2219 39.1819 79.3393C39.1819 80.4567 39.7458 81.8451 41.4498 83.4339C43.1535 85.0224 45.7728 86.5829 49.243 87.9514C56.1644 90.681 65.9117 92.4287 76.8145 92.4287C87.7173 92.4287 97.4645 90.681 104.386 87.9514C107.856 86.5829 110.475 85.0224 112.179 83.4339C113.883 81.8451 114.447 80.4567 114.447 79.3393C114.447 78.2219 113.883 76.8334 112.179 75.2447C110.475 73.6562 107.856 72.0957 104.386 70.7272C97.4645 67.9976 87.7173 66.2499 76.8145 66.2499C65.9117 66.2499 56.1644 67.9976 49.243 70.7272C45.7728 72.0957 43.1535 73.6562 41.4498 75.2447ZM47.2858 65.4329C54.9775 62.3995 65.4183 60.5828 76.8145 60.5828C88.2107 60.5828 98.6514 62.3995 106.343 65.4329C110.18 66.9459 113.473 68.8165 115.856 71.038C118.238 73.2593 119.934 76.0597 119.934 79.3393C119.934 82.6189 118.238 85.4193 115.856 87.6405C113.473 89.862 110.18 91.7327 106.343 93.2457C98.6514 96.2791 88.2107 98.0958 76.8145 98.0958C65.4183 98.0958 54.9775 96.2791 47.2858 93.2457C43.4494 91.7327 40.1558 89.862 37.7732 87.6405C35.3909 85.4193 33.6952 82.6189 33.6952 79.3393C33.6952 76.0597 35.3909 73.2593 37.7732 71.038C40.1558 68.8165 43.4494 66.9459 47.2858 65.4329Z" fill="#61DAFB"/>
<path fill-rule="evenodd" clip-rule="evenodd" d="M62.5652 45.6586C60.3811 44.9288 58.935 45.1186 57.9981 45.6773C57.0612 46.236 56.179 47.4346 55.6988 49.7532C55.2188 52.0714 55.2201 55.1946 55.8077 58.9829C56.9797 66.5389 60.3879 76.1315 65.8393 85.884C71.2907 95.6365 77.6298 103.481 83.3792 108.308C86.2617 110.728 88.8798 112.29 91.0635 113.02C93.2476 113.75 94.6937 113.56 95.6306 113.001C96.5675 112.443 97.4498 111.244 97.9299 108.925C98.41 106.607 98.4087 103.484 97.8211 99.6957C96.649 92.1397 93.2408 82.547 87.7894 72.7946C82.338 63.0421 75.999 55.1972 70.2496 50.3708C67.367 47.951 64.749 46.3882 62.5652 45.6586ZM73.7101 45.973C80.0993 51.3365 86.843 59.7672 92.5411 69.961C98.2392 80.1548 101.936 90.4023 103.239 98.7992C103.888 102.987 103.967 106.869 103.295 110.111C102.624 113.352 101.124 116.269 98.374 117.909C95.6242 119.549 92.4282 119.432 89.3747 118.412C86.3208 117.392 83.1055 115.381 79.9187 112.706C73.5294 107.342 66.7858 98.9113 61.0877 88.7175C55.3896 78.5237 51.6925 68.2762 50.39 59.8794C49.7404 55.6912 49.6621 51.8098 50.3335 48.5679C51.0047 45.3263 52.5049 42.4093 55.2547 40.7695C58.0046 39.1297 61.2005 39.2463 64.2541 40.2666C67.308 41.2871 70.5233 43.2978 73.7101 45.973Z" fill="#61DAFB"/>
<path fill-rule="evenodd" clip-rule="evenodd" d="M97.9299 49.7532C97.4498 47.4346 96.5675 46.236 95.6306 45.6773C94.6937 45.1186 93.2476 44.9288 91.0635 45.6586C88.8798 46.3883 86.2617 47.951 83.3792 50.3708C77.6298 55.1972 71.2907 63.0421 65.8393 72.7946C60.388 82.547 56.9797 92.1397 55.8077 99.6957C55.2201 103.484 55.2188 106.607 55.6988 108.925C56.179 111.244 57.0612 112.443 57.9981 113.001C58.935 113.56 60.3811 113.75 62.5653 113.02C64.749 112.29 67.367 110.728 70.2496 108.308C75.999 103.481 82.338 95.6365 87.7894 85.884C93.2408 76.1315 96.649 66.5389 97.8211 58.9829C98.4087 55.1946 98.41 52.0714 97.9299 49.7532ZM103.239 59.8794C101.936 68.2762 98.2392 78.5237 92.5411 88.7175C86.843 98.9113 80.0993 107.342 73.7101 112.706C70.5233 115.381 67.308 117.392 64.2541 118.412C61.2005 119.432 58.0046 119.549 55.2548 117.909C52.5049 116.269 51.0047 113.352 50.3335 110.111C49.6621 106.869 49.7404 102.987 50.39 98.7992C51.6925 90.4023 55.3896 80.1548 61.0877 69.961C66.7858 59.7672 73.5294 51.3365 79.9187 45.973C83.1055 43.2978 86.3208 41.2871 89.3747 40.2666C92.4282 39.2463 95.6242 39.1297 98.374 40.7695C101.124 42.4093 102.624 45.3263 103.295 48.5679C103.967 51.8098 103.888 55.6912 103.239 59.8794Z" fill="#61DAFB"/>
</svg>
